<svg xmlns="http://www.w3.org/2000/svg" width="26.094" height="26.072" viewBox="0 0 26.094 26.072">
  <g id="qr-code_2_" data-name="qr-code(2)" transform="translate(0 -0.332)">
    <path id="Path_79" data-name="Path 79" d="M77.289,76.567v7.076a.512.512,0,0,0,.512.512h7.076a.512.512,0,0,0,.512-.512V82.3a.512.512,0,1,0-1.023,0v.83H78.312V77.078h6.053V78.31a.512.512,0,1,0,1.023,0V76.567a.512.512,0,0,0-.512-.512H77.8a.512.512,0,0,0-.512.512Zm0,0" transform="translate(-74.138 -72.636)"/>
    <path id="Path_80" data-name="Path 80" d="M138.555,136.8a.511.511,0,0,0-.512.512v2.123a.512.512,0,0,0,.512.512h2.123a.512.512,0,0,0,.512-.512v-2.123a.512.512,0,0,0-.512-.512Zm1.611,2.123h-1.1v-1.1h1.1Zm0,0" transform="translate(-132.415 -130.909)"/>
    <path id="Path_81" data-name="Path 81" d="M84.877,364.344H77.8a.512.512,0,0,0-.512.512v7.077a.512.512,0,0,0,.512.511h7.076a.512.512,0,0,0,.512-.511v-7.077A.512.512,0,0,0,84.877,364.344Zm-.512,7.076H78.313v-6.053h6.053Zm0,0" transform="translate(-74.138 -349.171)"/>
    <path id="Path_82" data-name="Path 82" d="M366.961,84.154h7.077a.512.512,0,0,0,.512-.512V76.566a.512.512,0,0,0-.512-.512h-7.077a.512.512,0,0,0-.512.512v7.076A.512.512,0,0,0,366.961,84.154Zm.512-7.076h6.053v6.053h-6.053Zm0,0" transform="translate(-351.509 -72.635)"/>
    <path id="Path_83" data-name="Path 83" d="M374.549,371.932v-7.077a.512.512,0,0,0-.512-.512h-7.077a.512.512,0,0,0-.512.512v7.077a.512.512,0,0,0,.512.512h7.077A.512.512,0,0,0,374.549,371.932Zm-1.023-.512h-6.053v-6.053h6.053Zm0,0" transform="translate(-351.509 -349.171)"/>
    <path id="Path_84" data-name="Path 84" d="M145.618,85.191a.512.512,0,0,0,0-1.023h-8.971V75.176a.512.512,0,1,0-1.023,0v8.991h-6.791a.512.512,0,0,0,0,1.023h6.791v8.873a.512.512,0,0,0,1.023,0V85.191Zm0,0" transform="translate(-123.089 -71.302)"/>
    <path id="Path_85" data-name="Path 85" d="M138.555,429.173h2.123a.512.512,0,0,0,.512-.512v-2.123a.512.512,0,0,0-.512-.512h-2.123a.511.511,0,0,0-.512.512v2.123A.512.512,0,0,0,138.555,429.173Zm.512-2.123h1.1v1.1h-1.1Zm0,0" transform="translate(-132.415 -408.339)"/>
    <path id="Path_86" data-name="Path 86" d="M429.83,136.8h-2.123a.512.512,0,0,0-.512.512v2.123a.512.512,0,0,0,.512.512h2.123a.512.512,0,0,0,.512-.512v-2.123A.512.512,0,0,0,429.83,136.8Zm-.512,2.123h-1.1v-1.1h1.1Zm0,0" transform="translate(-409.778 -130.909)"/>
    <path id="Path_87" data-name="Path 87" d="M427.707,429.173h2.123a.512.512,0,0,0,.512-.512v-2.123a.512.512,0,0,0-.512-.512h-2.123a.512.512,0,0,0-.512.512v2.123A.512.512,0,0,0,427.707,429.173Zm.512-2.123h1.1v1.1h-1.1Zm0,0" transform="translate(-409.778 -408.339)"/>
    <path id="Path_88" data-name="Path 88" d="M77.374,307.471l-.028.006a.512.512,0,1,0,.235,1l.027-.006a.512.512,0,0,0-.235-1Zm0,0" transform="translate(-73.814 -294.603)"/>
    <path id="Path_89" data-name="Path 89" d="M250.943,167.469l-.028.007a.512.512,0,1,0,.234,1l.027-.006a.512.512,0,0,0-.234-1Zm0,0" transform="translate(-240.307 -160.309)"/>
    <path id="Path_90" data-name="Path 90" d="M.512,4.523a.511.511,0,0,0,.512-.512V1.355H3.583a.512.512,0,1,0,0-1.023H.512A.512.512,0,0,0,0,.844V4.011a.512.512,0,0,0,.512.512Zm0,0"/>
    <path id="Path_91" data-name="Path 91" d="M543.153.332h-3.071a.512.512,0,1,0,0,1.023h2.559V4.011a.512.512,0,0,0,1.023,0V.844a.512.512,0,0,0-.511-.512Zm0,0" transform="translate(-517.571 0)"/>
    <path id="Path_92" data-name="Path 92" d="M3.583,540.171H1.023v-2.656a.512.512,0,0,0-1.023,0v3.168a.512.512,0,0,0,.512.512H3.583a.512.512,0,1,0,0-1.024Zm0,0" transform="translate(0 -514.791)"/>
    <path id="Path_93" data-name="Path 93" d="M543.153,537a.512.512,0,0,0-.512.512v2.656h-2.559a.512.512,0,1,0,0,1.023h3.071a.512.512,0,0,0,.512-.512v-3.168A.512.512,0,0,0,543.153,537Zm0,0" transform="translate(-517.572 -514.792)"/>
  </g>
</svg>
