<svg xmlns="http://www.w3.org/2000/svg" xmlns:xlink="http://www.w3.org/1999/xlink" width="92.82" height="92.82" viewBox="0 0 92.82 92.82">
  <defs>
    <clipPath id="clip-path">
      <rect id="Rectangle_27" data-name="Rectangle 27" width="92.82" height="92.82" transform="translate(240 138)" fill="#fff"/>
    </clipPath>
  </defs>
  <g id="scan-qr" transform="translate(-240 -138)" clip-path="url(#clip-path)">
    <g id="qr-code_1_" data-name="qr-code(1)" transform="translate(240 138.039)">
      <path id="Path_49" data-name="Path 49" d="M7.97,9.663V34.835a1.82,1.82,0,0,0,1.82,1.82H34.963a1.82,1.82,0,0,0,1.82-1.82V30.062a1.82,1.82,0,1,0-3.64,0v2.953H11.611V11.483H33.143v4.382a1.82,1.82,0,1,0,3.64,0v-6.2a1.82,1.82,0,0,0-1.82-1.82H9.791a1.82,1.82,0,0,0-1.82,1.82Zm0,0" transform="translate(3.239 3.139)" fill="#fff"/>
      <path id="Path_50" data-name="Path 50" d="M16.055,14.108a1.819,1.819,0,0,0-1.82,1.82V23.48a1.82,1.82,0,0,0,1.82,1.82h7.552a1.821,1.821,0,0,0,1.82-1.82V15.928a1.82,1.82,0,0,0-1.82-1.82Zm5.732,7.552H17.876V17.748h3.912Zm0,0" transform="translate(5.785 5.685)" fill="#fff"/>
      <path id="Path_51" data-name="Path 51" d="M34.963,37.573H9.791a1.82,1.82,0,0,0-1.82,1.82V64.566a1.82,1.82,0,0,0,1.82,1.82H34.963a1.82,1.82,0,0,0,1.82-1.82V39.393a1.82,1.82,0,0,0-1.82-1.82Zm-1.82,25.172H11.611V41.213H33.144Zm0,0" transform="translate(3.239 15.22)" fill="#fff"/>
      <path id="Path_52" data-name="Path 52" d="M39.61,36.656H64.783a1.82,1.82,0,0,0,1.82-1.82V9.663a1.82,1.82,0,0,0-1.82-1.82H39.61a1.82,1.82,0,0,0-1.82,1.82V34.835A1.82,1.82,0,0,0,39.61,36.656Zm1.82-25.173H62.963V33.016H41.43Zm0,0" transform="translate(15.357 3.139)" fill="#fff"/>
      <path id="Path_53" data-name="Path 53" d="M66.6,64.566V39.393a1.82,1.82,0,0,0-1.82-1.82H39.61a1.82,1.82,0,0,0-1.82,1.82V64.566a1.82,1.82,0,0,0,1.82,1.82H64.783A1.82,1.82,0,0,0,66.6,64.566Zm-3.641-1.82H41.43V41.213H62.963Zm0,0" transform="translate(15.357 15.22)" fill="#fff"/>
      <path id="Path_54" data-name="Path 54" d="M74.762,45.143a1.82,1.82,0,0,0,0-3.64H42.851V9.52a1.82,1.82,0,0,0-3.641,0V41.5H15.053a1.82,1.82,0,0,0,0,3.64H39.211V76.705a1.82,1.82,0,0,0,3.641,0V45.143Zm0,0" transform="translate(5.377 3.081)" fill="#fff"/>
      <path id="Path_55" data-name="Path 55" d="M16.055,55.126h7.552a1.821,1.821,0,0,0,1.82-1.82V45.754a1.82,1.82,0,0,0-1.82-1.82H16.055a1.819,1.819,0,0,0-1.82,1.82v7.552A1.82,1.82,0,0,0,16.055,55.126Zm1.82-7.552h3.912v3.912H17.876Zm0,0" transform="translate(5.785 17.805)" fill="#fff"/>
      <path id="Path_56" data-name="Path 56" d="M53.427,14.108H45.875a1.82,1.82,0,0,0-1.82,1.82V23.48a1.821,1.821,0,0,0,1.82,1.82h7.552a1.82,1.82,0,0,0,1.82-1.82V15.928A1.82,1.82,0,0,0,53.427,14.108Zm-1.82,7.552H47.7V17.748h3.911Zm0,0" transform="translate(17.902 5.685)" fill="#fff"/>
      <path id="Path_57" data-name="Path 57" d="M45.875,55.126h7.552a1.82,1.82,0,0,0,1.82-1.82V45.754a1.819,1.819,0,0,0-1.82-1.82H45.875a1.82,1.82,0,0,0-1.82,1.82v7.552A1.821,1.821,0,0,0,45.875,55.126ZM47.7,47.574h3.911v3.912H47.7Zm0,0" transform="translate(17.902 17.805)" fill="#fff"/>
      <path id="Path_58" data-name="Path 58" d="M9.437,31.755l-.1.023a1.82,1.82,0,1,0,.835,3.543l.1-.023a1.82,1.82,0,0,0-.834-3.543Zm0,0" transform="translate(3.225 12.836)" fill="#fff"/>
      <path id="Path_59" data-name="Path 59" d="M27.337,17.317l-.1.023a1.821,1.821,0,0,0,.415,3.593,1.8,1.8,0,0,0,.417-.049l.1-.023a1.82,1.82,0,0,0-.831-3.544Zm0,0" transform="translate(10.498 6.969)" fill="#fff"/>
      <path id="Path_60" data-name="Path 60" d="M1.82,14.942a1.819,1.819,0,0,0,1.82-1.82V3.674h9.1a1.82,1.82,0,1,0,0-3.64H1.82A1.82,1.82,0,0,0,0,1.854V13.123a1.82,1.82,0,0,0,1.82,1.82Zm0,0" transform="translate(0 -0.034)" fill="#fff"/>
      <path id="Path_61" data-name="Path 61" d="M68.389.034H57.464a1.82,1.82,0,1,0,0,3.64h9.1v9.449a1.82,1.82,0,0,0,3.64,0V1.854a1.82,1.82,0,0,0-1.82-1.82Zm0,0" transform="translate(22.611 -0.034)" fill="#fff"/>
      <path id="Path_62" data-name="Path 62" d="M12.745,66.646H3.64V57.2A1.82,1.82,0,0,0,0,57.2V68.466a1.82,1.82,0,0,0,1.82,1.82H12.745a1.82,1.82,0,1,0,0-3.641Zm0,0" transform="translate(0 22.456)" fill="#fff"/>
      <path id="Path_63" data-name="Path 63" d="M68.389,55.379a1.82,1.82,0,0,0-1.82,1.82v9.448h-9.1a1.82,1.82,0,1,0,0,3.641H68.389a1.82,1.82,0,0,0,1.82-1.82V57.2a1.82,1.82,0,0,0-1.82-1.82Zm0,0" transform="translate(22.611 22.456)" fill="#fff"/>
    </g>
  </g>
</svg>
