<svg xmlns="http://www.w3.org/2000/svg" xmlns:xlink="http://www.w3.org/1999/xlink" width="92.82" height="92.82" viewBox="0 0 92.82 92.82">
  <defs>
    <clipPath id="clip-path">
      <rect id="Rectangle_29" data-name="Rectangle 29" width="92.82" height="92.82" transform="translate(68 311)" fill="#fff"/>
    </clipPath>
  </defs>
  <g id="ticket" transform="translate(-68 -311)" clip-path="url(#clip-path)">
    <g id="ticket-2" data-name="ticket" transform="translate(68.042 311)">
      <path id="Path_46" data-name="Path 46" d="M86.06,24.193a1.53,1.53,0,0,0-1.941-.185A11.01,11.01,0,0,1,68.844,8.716a1.531,1.531,0,0,0-.191-1.931L64.6,2.734a9.367,9.367,0,0,0-13.24.012L2.738,51.546a9.369,9.369,0,0,0,.013,13.216L5.838,67.85a1.53,1.53,0,0,0,2.061.095A10.907,10.907,0,0,1,23.26,83.305a1.531,1.531,0,0,0,.094,2.061l4.719,4.719a9.365,9.365,0,0,0,13.229,0L90.013,41.374a9.354,9.354,0,0,0,0-13.228ZM87.849,39.21,39.137,87.921a6.3,6.3,0,0,1-8.9,0L26.456,84.14A13.969,13.969,0,0,0,7.065,64.748L4.915,62.6a6.3,6.3,0,0,1-.008-8.892L53.536,4.9a6.3,6.3,0,0,1,8.9,0l3.2,3.2a14.072,14.072,0,0,0,19.108,19.11l3.1,3.1a6.293,6.293,0,0,1,0,8.9Zm0,0" transform="translate(-0.017 0)" fill="#fff"/>
      <path id="Path_47" data-name="Path 47" d="M47.93,10.511a1.53,1.53,0,0,0-2.164,0l-35.3,35.3a1.531,1.531,0,0,0,0,2.165L36.606,74.119a1.531,1.531,0,0,0,2.165,0l35.3-35.3a1.53,1.53,0,0,0,0-2.164ZM37.689,70.873,13.711,46.895l5.5-5.5L43.186,65.376Zm7.662-7.662L21.373,39.233,46.849,13.757,70.826,37.735Zm0,0" transform="translate(4.046 4.089)" fill="#fff"/>
      <path id="Path_48" data-name="Path 48" d="M35.146,23.529A1.531,1.531,0,0,0,32.7,24.776l.074,5.692-4.648,3.287a1.531,1.531,0,0,0,.429,2.711l5.437,1.69,1.69,5.437a1.53,1.53,0,0,0,2.711.429l3.287-4.648,5.693.072A1.53,1.53,0,0,0,48.618,37l-3.4-4.562,1.828-5.392a1.53,1.53,0,0,0-1.94-1.94l-5.392,1.828Zm8,5.471-1.09,3.217a1.53,1.53,0,0,0,.223,1.407l2.032,2.722-3.4-.043a1.525,1.525,0,0,0-1.269.646l-1.961,2.774-1.009-3.244a1.53,1.53,0,0,0-1.007-1.007l-3.244-1.009L35.2,32.5a1.529,1.529,0,0,0,.646-1.269l-.043-3.4,2.722,2.032a1.533,1.533,0,0,0,1.407.223Zm0,0" transform="translate(11.142 9.438)" fill="#fff"/>
    </g>
  </g>
</svg>
